<?xml version="1.0" encoding="UTF-8" standalone="no"?>
<!-- Created with Inkscape (http://www.inkscape.org/) -->

<svg
   width="1600"
   height="400"
   viewBox="0 0 423.33332 105.83333"
   version="1.1"
   id="svg1"
   inkscape:version="1.4 (e7c3feb1, 2024-10-09)"
   sodipodi:docname="full-logo.svg"
   inkscape:export-filename="full-logo.png"
   inkscape:export-xdpi="96"
   inkscape:export-ydpi="96"
   xmlns:inkscape="http://www.inkscape.org/namespaces/inkscape"
   xmlns:sodipodi="http://sodipodi.sourceforge.net/DTD/sodipodi-0.dtd"
   xmlns:xlink="http://www.w3.org/1999/xlink"
   xmlns="http://www.w3.org/2000/svg"
   xmlns:svg="http://www.w3.org/2000/svg">
  <sodipodi:namedview
     id="namedview1"
     pagecolor="#ffffff"
     bordercolor="#000000"
     borderopacity="0.25"
     inkscape:showpageshadow="2"
     inkscape:pageopacity="0.0"
     inkscape:pagecheckerboard="0"
     inkscape:deskcolor="#d1d1d1"
     inkscape:document-units="mm"
     inkscape:zoom="0.46664696"
     inkscape:cx="775.74704"
     inkscape:cy="76.074641"
     inkscape:window-width="1440"
     inkscape:window-height="872"
     inkscape:window-x="0"
     inkscape:window-y="28"
     inkscape:window-maximized="0"
     inkscape:current-layer="layer1"
     showguides="true">
    <sodipodi:guide
       position="139.12289,71.052607"
       orientation="0,-1"
       id="guide2"
       inkscape:locked="false" />
    <sodipodi:guide
       position="138.42025,33.461321"
       orientation="0,-1"
       id="guide3"
       inkscape:locked="false" />
  </sodipodi:namedview>
  <defs
     id="defs1">
    <rect
       x="426.98804"
       y="9.7042736"
       width="1158.6903"
       height="376.52582"
       id="rect1" />
    <linearGradient
       inkscape:collect="always"
       xlink:href="#linearGradient46"
       id="linearGradient47"
       gradientUnits="userSpaceOnUse"
       gradientTransform="matrix(-1.5081234,0,0,-1.5247297,209.90805,101.46755)"
       x1="105.88627"
       y1="38.730244"
       x2="124.49988"
       y2="2.1989708" />
    <linearGradient
       id="linearGradient46"
       inkscape:collect="always">
      <stop
         style="stop-color:#31ccd1;stop-opacity:1;"
         offset="0.2150259"
         id="stop45" />
      <stop
         style="stop-color:#13c095;stop-opacity:1;"
         offset="1"
         id="stop46" />
    </linearGradient>
    <linearGradient
       inkscape:collect="always"
       xlink:href="#linearGradient48"
       id="linearGradient41"
       gradientUnits="userSpaceOnUse"
       gradientTransform="matrix(-1.5616672,0,0,-1.5788616,216.07784,102.58311)"
       x1="124.49988"
       y1="2.1989708"
       x2="105.88627"
       y2="38.730244" />
    <linearGradient
       id="linearGradient48"
       inkscape:collect="always">
      <stop
         style="stop-color:#31ccd1;stop-opacity:0.80000001;"
         offset="0.2150259"
         id="stop47" />
      <stop
         style="stop-color:#13c095;stop-opacity:0.80000001;"
         offset="1"
         id="stop48" />
    </linearGradient>
    <linearGradient
       inkscape:collect="always"
       xlink:href="#linearGradient11"
       id="linearGradient14"
       gradientUnits="userSpaceOnUse"
       gradientTransform="matrix(0.68087244,0,0,0.68087244,8.185322,5.6717707)"
       x1="105.88627"
       y1="38.730244"
       x2="124.49988"
       y2="2.1989715" />
    <linearGradient
       id="linearGradient11"
       inkscape:collect="always">
      <stop
         style="stop-color:#2b7bc4;stop-opacity:1;"
         offset="0.2150259"
         id="stop12" />
      <stop
         style="stop-color:#0053f9;stop-opacity:1;"
         offset="1"
         id="stop11" />
    </linearGradient>
    <linearGradient
       inkscape:collect="always"
       xlink:href="#linearGradient36"
       id="linearGradient40"
       gradientUnits="userSpaceOnUse"
       gradientTransform="matrix(0.68087245,0,0,0.68087245,8.208152,72.922057)"
       x1="105.88627"
       y1="38.730244"
       x2="124.49988"
       y2="2.1989715" />
    <linearGradient
       id="linearGradient36"
       inkscape:collect="always">
      <stop
         style="stop-color:#00b9d2;stop-opacity:1;"
         offset="0.2150259"
         id="stop35" />
      <stop
         style="stop-color:#05a4e6;stop-opacity:1;"
         offset="1"
         id="stop36" />
    </linearGradient>
    <linearGradient
       inkscape:collect="always"
       xlink:href="#linearGradient36"
       id="linearGradient35"
       gradientUnits="userSpaceOnUse"
       gradientTransform="matrix(0.68087245,0,0,0.68087245,-59.200869,5.5597337)"
       x1="105.88627"
       y1="38.730244"
       x2="124.49988"
       y2="2.1989715" />
    <linearGradient
       inkscape:collect="always"
       xlink:href="#linearGradient34"
       id="linearGradient39"
       gradientUnits="userSpaceOnUse"
       gradientTransform="matrix(0.73462553,0,0,0.73462553,-171.2471,-101.89335)"
       x1="105.88627"
       y1="38.730244"
       x2="124.49988"
       y2="2.1989715" />
    <linearGradient
       id="linearGradient34"
       inkscape:collect="always">
      <stop
         style="stop-color:#00b9d2;stop-opacity:0.85000002;"
         offset="0.2150259"
         id="stop33" />
      <stop
         style="stop-color:#05a4e6;stop-opacity:0.85000002;"
         offset="1"
         id="stop34" />
    </linearGradient>
    <linearGradient
       inkscape:collect="always"
       xlink:href="#linearGradient34"
       id="linearGradient18"
       gradientUnits="userSpaceOnUse"
       gradientTransform="matrix(0.73462553,0,0,0.73462553,-103.8763,-34.531059)"
       x1="105.88627"
       y1="38.730244"
       x2="124.49988"
       y2="2.1989715" />
    <linearGradient
       inkscape:collect="always"
       xlink:href="#linearGradient32"
       id="linearGradient31"
       gradientUnits="userSpaceOnUse"
       gradientTransform="matrix(0.68087245,0,0,0.68087245,-25.47026,5.5133261)"
       x1="105.88627"
       y1="38.730244"
       x2="124.49988"
       y2="2.1989715" />
    <linearGradient
       id="linearGradient32"
       inkscape:collect="always">
      <stop
         style="stop-color:#299ad2;stop-opacity:1;"
         offset="0.2150259"
         id="stop31" />
      <stop
         style="stop-color:#0d85e6;stop-opacity:1;"
         offset="1"
         id="stop32" />
    </linearGradient>
    <linearGradient
       inkscape:collect="always"
       xlink:href="#linearGradient32"
       id="linearGradient38"
       gradientUnits="userSpaceOnUse"
       gradientTransform="matrix(0.68087245,0,0,0.68087245,8.1494393,39.239162)"
       x1="105.88627"
       y1="38.730244"
       x2="124.49988"
       y2="2.1989715" />
    <linearGradient
       inkscape:collect="always"
       xlink:href="#linearGradient30"
       id="linearGradient37"
       gradientUnits="userSpaceOnUse"
       gradientTransform="matrix(0.73462553,0,0,0.73462553,-171.22999,-68.289571)"
       x1="105.88627"
       y1="38.730244"
       x2="124.49988"
       y2="2.1989715" />
    <linearGradient
       id="linearGradient30"
       inkscape:collect="always">
      <stop
         style="stop-color:#299ad2;stop-opacity:0.85000002;"
         offset="0.2150259"
         id="stop29" />
      <stop
         style="stop-color:#0d85e6;stop-opacity:0.85000002;"
         offset="1"
         id="stop30" />
    </linearGradient>
    <linearGradient
       inkscape:collect="always"
       xlink:href="#linearGradient30"
       id="linearGradient17"
       gradientUnits="userSpaceOnUse"
       gradientTransform="matrix(0.73462553,0,0,0.73462553,-137.59123,-34.535591)"
       x1="105.88627"
       y1="38.730244"
       x2="124.49988"
       y2="2.1989715" />
    <linearGradient
       inkscape:collect="always"
       xlink:href="#linearGradient22"
       id="linearGradient13"
       gradientUnits="userSpaceOnUse"
       gradientTransform="matrix(0.73462553,0,0,0.73462553,-171.16734,-34.656905)"
       x1="105.88627"
       y1="38.730244"
       x2="124.49988"
       y2="2.1989715" />
    <linearGradient
       id="linearGradient22"
       inkscape:collect="always">
      <stop
         style="stop-color:#2b7bc4;stop-opacity:0.85000002;"
         offset="0.2150259"
         id="stop21" />
      <stop
         style="stop-color:#0053f9;stop-opacity:0.85000002;"
         offset="1"
         id="stop22" />
    </linearGradient>
  </defs>
  <g
     inkscape:label="Layer 1"
     inkscape:groupmode="layer"
     id="layer1">
    <rect
       style="mix-blend-mode:normal;fill:url(#linearGradient13);fill-rule:evenodd;stroke:#ffffff;stroke-width:0"
       id="rect13"
       width="30.11965"
       height="30.11965"
       x="-101.60339"
       y="-34.682911"
       ry="5.8770046"
       rx="5.8770046"
       transform="scale(-1)"
       inkscape:label="rect13" />
    <rect
       style="mix-blend-mode:normal;fill:url(#linearGradient17);fill-rule:evenodd;stroke:#ffffff;stroke-width:0"
       id="rect13-5"
       width="30.11965"
       height="30.11965"
       x="-68.027298"
       y="-34.561584"
       ry="5.8770046"
       rx="5.8770046"
       transform="scale(-1)" />
    <rect
       style="mix-blend-mode:normal;fill:url(#linearGradient37);fill-rule:evenodd;stroke:#ffffff;stroke-width:0"
       id="rect13-5-0"
       width="30.11965"
       height="30.11965"
       x="-101.66599"
       y="-68.315575"
       ry="5.8770046"
       rx="5.8770046"
       transform="scale(-1)" />
    <rect
       style="mix-blend-mode:normal;fill:url(#linearGradient38);fill-rule:evenodd;stroke:#ffffff;stroke-width:0"
       id="rect13-5-80-3"
       width="27.91577"
       height="27.91577"
       x="72.623314"
       y="39.215073"
       ry="5.44698"
       rx="5.44698" />
    <rect
       style="mix-blend-mode:normal;fill:url(#linearGradient31);fill-rule:evenodd;stroke:#ffffff;stroke-width:0"
       id="rect13-5-80"
       width="27.91577"
       height="27.91577"
       x="39.003628"
       y="5.4892273"
       ry="5.44698"
       rx="5.44698" />
    <rect
       style="mix-blend-mode:normal;fill:url(#linearGradient18);fill-rule:evenodd;stroke:#ffffff;stroke-width:0"
       id="rect13-5-9"
       width="30.11965"
       height="30.11965"
       x="-34.312363"
       y="-34.55706"
       ry="5.8770046"
       rx="5.8770046"
       transform="scale(-1)" />
    <rect
       style="mix-blend-mode:normal;fill:url(#linearGradient39);fill-rule:evenodd;stroke:#ffffff;stroke-width:0"
       id="rect13-5-9-1"
       width="30.11965"
       height="30.11965"
       x="-101.68319"
       y="-101.91936"
       ry="5.8770046"
       rx="5.8770046"
       transform="scale(-1)" />
    <rect
       style="mix-blend-mode:normal;fill:url(#linearGradient35);fill-rule:evenodd;stroke:#ffffff;stroke-width:0"
       id="rect13-5-9-8"
       width="27.91577"
       height="27.91577"
       x="5.2730103"
       y="5.5356321"
       ry="5.44698"
       rx="5.44698" />
    <rect
       style="mix-blend-mode:normal;fill:url(#linearGradient40);fill-rule:evenodd;stroke:#ffffff;stroke-width:0"
       id="rect13-5-9-8-8"
       width="27.91577"
       height="27.91577"
       x="72.682045"
       y="72.897972"
       ry="5.44698"
       rx="5.44698" />
    <rect
       style="display:inline;mix-blend-mode:normal;fill:url(#linearGradient14);fill-rule:evenodd;stroke:#ffffff;stroke-width:0"
       id="rect14"
       width="27.91577"
       height="27.91577"
       x="72.659195"
       y="5.6476679"
       ry="5.44698"
       rx="5.44698" />
    <path
       id="rect14-0"
       style="display:inline;fill:url(#linearGradient41);fill-rule:evenodd;stroke:#ffffff;stroke-width:0"
       d="M 62.015444,92.302915 44.25568,79.316016 28.004095,79.292356 c -1.597577,-0.0023 -5.813744,5.926654 -10.726196,11.672894 -3.781875,4.423776 -7.3011527,9.05692 -9.3746619,10.77246 -0.8171799,0.6761 -3.919322,0.74744 -3.9138617,-0.93304 L 4.1704695,45.074977 c 0.012911,-3.971763 2.4599549,-7.169292 5.5155948,-7.169292 H 62.683234 c 3.055637,0 5.509205,3.19751 5.515599,7.169292 l 0.07031,43.697134 c 0.0066,3.971763 -3.75752,5.312662 -6.253661,3.530804 z"
       sodipodi:nodetypes="scsssssssssss" />
    <path
       id="rect14-0-9"
       style="display:inline;fill:url(#linearGradient47);fill-rule:evenodd;stroke:#ffffff;stroke-width:0"
       d="M 61.127885,91.539818 43.977042,78.998169 28.282663,78.975278 c -1.542801,-0.0023 -5.614413,5.723465 -10.358435,11.272692 -3.652207,4.272098 -7.050828,8.746413 -9.0532381,10.4031 -0.435335,0.36019 -1.6233082,0.9078 -2.5274202,0.72657 -0.7348369,-0.14727 -1.2554056,-0.65639 -1.2522491,-1.627607 L 5.2662047,45.931057 c 0.012463,-3.835591 2.3756117,-6.923491 5.3264863,-6.923491 h 51.180093 c 2.950871,0 5.320317,3.087882 5.326487,6.923491 l 0.06789,42.198952 c 0.0066,3.835603 -3.628689,5.130531 -6.039251,3.409764 z"
       sodipodi:nodetypes="scssssssssssss" />
    <text
       xml:space="preserve"
       transform="scale(0.26458333)"
       id="text1"
       style="font-weight:600;font-size:96px;line-height:0px;font-family:'FONTSPRING DEMO - TouchMe Sans Petite SemiBold';-inkscape-font-specification:'FONTSPRING DEMO - TouchMe Sans Petite SemiBold,  Semi-Bold';text-align:end;writing-mode:lr-tb;direction:ltr;white-space:pre;shape-inside:url(#rect1);display:inline;fill:#55c389;fill-rule:evenodd;stroke:#000000;stroke-width:0;stroke-opacity:0" />
    <path
       d="m 146.81561,47.538492 c 0,-8.351765 -5.98027,-12.32143 -15.1569,-12.32143 h -13.76495 v 36.08787 h 10.62015 V 59.859921 h 3.1448 c 9.17663,0 15.1569,-3.918111 15.1569,-12.321429 z m -10.72325,0 c 0,3.041691 -1.75284,4.175882 -4.79453,4.175882 h -2.78392 v -8.351765 h 2.78392 c 3.04169,0 4.79453,1.134191 4.79453,4.175883 z m 34.7475,-3.454125 c -0.36088,-0.05155 -1.18574,-0.103108 -1.59818,-0.103108 -3.71189,0 -6.65048,1.804393 -8.04244,4.53676 l -1.39196,-3.918111 h -8.30021 v 26.705024 h 10.20771 V 55.271607 c 1.49507,-2.216827 4.12433,-3.557233 7.26913,-3.557233 0.67021,0 1.39196,0.05155 1.85595,0.103108 z m 16.60042,20.209207 c -2.68082,0 -4.22744,-2.113718 -4.22744,-6.341154 0,-4.175882 1.54662,-6.2896 4.22744,-6.2896 2.73236,0 4.27899,2.113718 4.27899,6.2896 0,4.227436 -1.54663,6.341154 -4.27899,6.341154 z m 0,-20.312315 c -8.40332,0 -14.12583,5.670951 -14.12583,13.971161 0,8.351764 5.72251,13.971161 14.12583,13.971161 8.45487,0 14.17737,-5.619397 14.17737,-13.971161 0,-8.30021 -5.7225,-13.971161 -14.17737,-13.971161 z m 27.42682,0.618649 h -8.30021 v 26.705024 h 10.15616 V 53.364105 c 0.87642,-0.927974 2.21682,-1.701285 3.45412,-1.701285 1.75284,0 2.52615,1.082636 2.52615,3.247908 v 16.394204 h 10.15616 V 53.415659 c 0.82487,-0.979528 2.16527,-1.752839 3.40257,-1.752839 1.70129,0 2.52615,1.082636 2.52615,3.247908 v 16.394204 h 10.15616 V 54.034308 c 0,-6.341154 -2.93858,-10.053049 -8.24865,-10.053049 -3.81501,0 -6.80515,1.598177 -9.17663,3.918111 -1.34041,-2.526151 -3.66035,-3.918111 -6.90825,-3.918111 -2.83548,0 -6.2896,1.598177 -8.40332,4.021219 z m 69.18563,13.352512 c 0,-9.17663 -4.74297,-13.971161 -11.29034,-13.971161 -2.88703,0 -5.98028,1.288852 -8.04244,3.505678 l -1.39196,-2.887029 h -8.30021 v 37.634493 h 10.20771 V 68.933443 c 2.06216,1.907502 4.63987,2.990138 7.5269,2.990138 6.54737,0 11.29034,-4.742977 11.29034,-13.971161 z m -14.84758,6.2896 c -1.3404,0 -2.99014,-0.618649 -3.96966,-1.598177 v -9.331292 c 0.97952,-0.979528 2.62926,-1.649731 3.96966,-1.649731 2.88703,0 4.58832,2.113718 4.58832,6.2896 0,4.227436 -1.70129,6.2896 -4.58832,6.2896 z m 21.91053,-2.629259 c 0,7.16602 3.29946,10.31082 9.22818,10.31082 2.68081,0 5.25852,-0.773312 7.01136,-1.701285 V 64.24202 c -0.5671,0.05155 -1.44352,0.05155 -2.11372,0.05155 -3.09325,0 -3.96967,-0.824866 -3.96967,-3.711895 v -8.403318 h 6.08339 v -7.578453 h -6.08339 v -7.990886 l -10.15615,1.959056 v 6.03183 l -4.3821,1.031082 v 6.547371 h 4.3821 z m 54.64737,-13.919607 c -1.59818,-7.733115 -7.73312,-13.094742 -16.44576,-13.094742 -11.29035,0 -18.14704,7.372237 -18.14704,18.662585 0,11.290348 7.11446,18.662584 18.35326,18.662584 10.05305,0 16.54886,-5.980276 16.54886,-17.579948 v -3.1448 H 328.8533 v 6.805141 h 6.95981 c -0.30933,3.247908 -3.35102,5.310072 -6.44427,5.310072 -4.33054,0 -7.52689,-3.40257 -7.52689,-10.053049 0,-6.650479 2.93858,-10.001496 7.26912,-10.001496 2.68082,0 5.15541,1.495069 5.92872,4.433653 z m 24.69438,-3.608787 c -0.36088,-0.05155 -1.18575,-0.103108 -1.59818,-0.103108 -3.7119,0 -6.65048,1.804393 -8.04244,4.53676 l -1.39196,-3.918111 h -8.30021 v 26.705024 h 10.20771 V 55.271607 c 1.49507,-2.216827 4.12433,-3.557233 7.26913,-3.557233 0.6702,0 1.39196,0.05155 1.85595,0.103108 z m 4.07277,27.220565 h 10.20771 V 44.599908 H 374.5302 Z m 0,-30.159149 h 10.20771 v -7.42379 H 374.5302 Z m 15.62089,16.806637 c 0,9.228184 4.74297,13.971161 11.23879,13.971161 2.88703,0 6.03183,-1.340407 8.09399,-3.454125 l 1.39197,2.835476 h 8.24865 V 33.670439 h -10.15616 v 13.300957 c -2.06216,-1.907501 -4.69142,-2.990137 -7.57845,-2.990137 -6.49582,0 -11.23879,4.794531 -11.23879,13.971161 z m 14.84758,-6.2896 c 1.3404,0 2.99014,0.670203 3.96966,1.649731 v 9.331292 c -0.97952,0.979528 -2.62926,1.598177 -3.96966,1.598177 -2.88703,0 -4.58832,-2.062164 -4.58832,-6.2896 0,-4.175882 1.70129,-6.2896 4.58832,-6.2896 z"
       id="text2"
       style="font-weight:800;font-size:51.5541px;line-height:0px;font-family:Artico;-inkscape-font-specification:'Artico Ultra-Bold';text-align:end;text-anchor:end;fill:#0178ee;fill-rule:evenodd;stroke:#000000;stroke-width:0;stroke-opacity:0"
       aria-label="PromptGrid" />
  </g>
</svg>
